<?xml version="1.0" encoding="utf-8"?>
<!-- Generator: Adobe Illustrator 27.9.2, SVG Export Plug-In . SVG Version: 6.00 Build 0)  -->
<svg version="1.1" id="Layer_1" xmlns="http://www.w3.org/2000/svg" xmlns:xlink="http://www.w3.org/1999/xlink" x="0px" y="0px"
	 viewBox="0 0 500 500" style="enable-background:new 0 0 500 500;" xml:space="preserve">
<style type="text/css">
	.st0{fill:#FFFFFF;}
</style>
<path class="st0" d="M312.4,184c-22.8,0-48.4,3-74.2,8.6c-68.7,15-137.5,50.2-129.8,85.7c4.5,20.6,33.5,32.4,79.5,32.4
	c22.8,0,48.5-3,74.2-8.6c68.7-15,137.5-50.1,129.8-85.7C387.4,195.8,358.4,184,312.4,184z M258.5,285.3c-24.5,5.3-48.9,8.2-70.5,8.2
	c-40.2,0-60.7-9.8-62.7-18.8c-3.5-15.8,39.2-48.3,116.6-65.2c24.5-5.4,48.9-8.2,70.5-8.2c40.2,0,60.7,9.8,62.7,18.8
	C378.5,235.9,335.8,268.4,258.5,285.3z"/>
<path class="st0" d="M322.3,145.1c-29.5,0-60.5,3.5-92.2,10.4C177,167.1,128.8,187,94.5,211.5c-36.3,25.9-53.3,54.4-47.6,80.3
	c7.8,35.7,58,57.9,131.1,57.9c29.5,0,60.5-3.5,92.2-10.4c53.2-11.6,101.3-31.5,135.6-55.9c36.3-25.9,53.2-54.4,47.6-80.3
	C445.6,167.3,395.4,145.1,322.3,145.1z M395.8,269.2c-32.4,23.1-78.3,42-129.3,53.1c-30.5,6.7-60.3,10-88.5,10
	c-63.5,0-108.4-17.4-114.2-44.3c-4-18.4,10.8-41.2,40.8-62.6c32.4-23.1,78.3-42,129.3-53.1c30.5-6.7,60.3-10,88.5-10
	c63.5,0,108.4,17.4,114.2,44.3C440.6,225.1,425.7,247.9,395.8,269.2z"/>
<path class="st0" d="M494.4,194c-10.9-50-76.3-81.1-170.7-81.1c-32.5,0-66.3,3.8-100.4,11.2c-64.2,14-122.1,39.5-162.9,71.7
	C17.8,229.4-1.5,266.6,5.9,300.7c10.9,50,76.3,81.1,170.7,81.1c32.5,0,66.3-3.8,100.5-11.3c64.3-14,122.1-39.5,162.9-71.7
	C482.5,265.3,501.9,228.1,494.4,194z M429.3,285.3c-38.8,30.6-94.2,54.9-155.9,68.4c-33,7.2-65.5,10.8-96.8,10.8
	c-84.5,0-144.9-26.5-153.9-67.6c-6-27.3,11.2-58.4,48.3-87.6c38.8-30.6,94.2-54.9,155.9-68.4c33-7.2,65.5-10.8,96.8-10.8
	c84.5,0,144.9,26.5,153.9,67.5C483.6,225,466.4,256.1,429.3,285.3z"/>
</svg>
